<svg xmlns="http://www.w3.org/2000/svg" xmlns:xlink="http://www.w3.org/1999/xlink" id="Layer_1" width="252" height="252" enable-background="new 0 0 252 252" overflow="visible" version="1.1" viewBox="0 0 252 252" xml:space="preserve"><rect width="216" height="216" x="18" y="18" fill="none" stroke="#8B5C29" stroke-width="1.5"/><line x1="90" x2="90" y1="18" y2="234" fill="none" stroke="#8B5C29" stroke-width="1.5"/><line x1="162" x2="162" y1="18" y2="234" fill="none" stroke="#8B5C29" stroke-width="1.5"/><line x1="18" x2="234" y1="90" y2="90" fill="none" stroke="#8B5C29" stroke-width="1.5"/><line x1="18" x2="234" y1="162" y2="162" fill="none" stroke="#8B5C29" stroke-width="1.5"/><polyline fill="none" stroke="#003CFF" stroke-width="6" points="18 18 18 90 90 90 90 18"/><polyline fill="none" stroke="#003CFF" stroke-width="6" points="90 90 234 90 234 162 90 162 90 234 234 234"/><polyline fill="none" stroke="#003CFF" stroke-width="6" points="234 18 162 18 162 90"/><polyline fill="none" stroke="#003CFF" stroke-width="6" points="90 234 18 234 18 162"/><circle cx="18" cy="18" r="9" fill="#8F0000" stroke="#000" stroke-width="2"/><circle cx="90" cy="18" r="9" fill="#8F0000" stroke="#000" stroke-width="2"/><circle cx="162" cy="18" r="9" fill="#8F0000" stroke="#000" stroke-width="2"/><circle cx="234" cy="18" r="9" fill="#8F0000" stroke="#000" stroke-width="2"/><circle cx="18" cy="162" r="9" fill="#8F0000" stroke="#000" stroke-width="2"/><circle cx="90" cy="162" r="9" fill="#8F0000" stroke="#000" stroke-width="2"/><circle cx="162" cy="162" r="9" fill="#8F0000" stroke="#000" stroke-width="2"/><circle cx="234" cy="162" r="9" fill="#8F0000" stroke="#000" stroke-width="2"/><circle cx="18" cy="234" r="9" fill="#8F0000" stroke="#000" stroke-width="2"/><circle cx="90" cy="234" r="9" fill="#8F0000" stroke="#000" stroke-width="2"/><circle cx="162" cy="234" r="9" fill="#8F0000" stroke="#000" stroke-width="2"/><circle cx="234" cy="234" r="9" fill="#8F0000" stroke="#000" stroke-width="2"/><circle cx="18" cy="90" r="9" fill="#8F0000" stroke="#000" stroke-width="2"/><circle cx="90" cy="90" r="9" fill="#8F0000" stroke="#000" stroke-width="2"/><circle cx="162" cy="90" r="9" fill="#8F0000" stroke="#000" stroke-width="2"/><circle cx="234" cy="90" r="9" fill="#8F0000" stroke="#000" stroke-width="2"/><rect width="252" height="252" fill="none"/></svg>